<?xml version="1.0" encoding="UTF-8"?>
<svg xmlns="http://www.w3.org/2000/svg" xmlns:xlink="http://www.w3.org/1999/xlink" width="80pt" height="80pt" viewBox="0 0 80 80" version="1.1">
<g id="surface6269220">
<path style=" stroke:none;fill-rule:nonzero;fill:rgb(90.588236%,29.803923%,23.529412%);fill-opacity:1;" d="M 8.71875 10 L 10.21875 16 L 11 16 L 11 70 L 27 70 L 27 68 L 13 68 L 13 16 C 13.550781 16 14 15.550781 14 15 C 14 14.449219 13.550781 14 13 14 L 11.78125 14 L 11.28125 12 L 58.71875 12 L 58.21875 14 L 57 14 C 56.449219 14 56 14.449219 56 15 C 56 15.550781 56.449219 16 57 16 L 57 42 L 59 42 L 59 16 L 59.78125 16 L 61.28125 10 Z M 17 14 C 16.449219 14 16 14.449219 16 15 C 16 15.550781 16.449219 16 17 16 C 17.550781 16 18 15.550781 18 15 C 18 14.449219 17.550781 14 17 14 Z M 21 14 C 20.449219 14 20 14.449219 20 15 C 20 15.550781 20.449219 16 21 16 C 21.550781 16 22 15.550781 22 15 C 22 14.449219 21.550781 14 21 14 Z M 25 14 C 24.449219 14 24 14.449219 24 15 C 24 15.550781 24.449219 16 25 16 C 25.550781 16 26 15.550781 26 15 C 26 14.449219 25.550781 14 25 14 Z M 29 14 C 28.449219 14 28 14.449219 28 15 C 28 15.550781 28.449219 16 29 16 C 29.550781 16 30 15.550781 30 15 C 30 14.449219 29.550781 14 29 14 Z M 33 14 C 32.449219 14 32 14.449219 32 15 C 32 15.550781 32.449219 16 33 16 C 33.550781 16 34 15.550781 34 15 C 34 14.449219 33.550781 14 33 14 Z M 37 14 C 36.449219 14 36 14.449219 36 15 C 36 15.550781 36.449219 16 37 16 C 37.550781 16 38 15.550781 38 15 C 38 14.449219 37.550781 14 37 14 Z M 41 14 C 40.449219 14 40 14.449219 40 15 C 40 15.550781 40.449219 16 41 16 C 41.550781 16 42 15.550781 42 15 C 42 14.449219 41.550781 14 41 14 Z M 45 14 C 44.449219 14 44 14.449219 44 15 C 44 15.550781 44.449219 16 45 16 C 45.550781 16 46 15.550781 46 15 C 46 14.449219 45.550781 14 45 14 Z M 49 14 C 48.449219 14 48 14.449219 48 15 C 48 15.550781 48.449219 16 49 16 C 49.550781 16 50 15.550781 50 15 C 50 14.449219 49.550781 14 49 14 Z M 53 14 C 52.449219 14 52 14.449219 52 15 C 52 15.550781 52.449219 16 53 16 C 53.550781 16 54 15.550781 54 15 C 54 14.449219 53.550781 14 53 14 Z M 17 20 L 17 28 L 27 28 L 27 20 Z M 30 20 L 30 28 L 40 28 L 40 20 Z M 43 20 L 43 28 L 53 28 L 53 20 Z M 19 22 L 25 22 L 25 26 L 19 26 Z M 32 22 L 38 22 L 38 26 L 32 26 Z M 45 22 L 51 22 L 51 26 L 45 26 Z M 17 32 L 17 40 L 27 40 L 27 32 Z M 30 32 L 30 40 L 40 40 L 40 32 Z M 43 32 L 43 40 L 53 40 L 53 32 Z M 19 34 L 25 34 L 25 38 L 19 38 Z M 32 34 L 38 34 L 38 38 L 32 38 Z M 45 34 L 51 34 L 51 38 L 45 38 Z M 17 44 L 17 52 L 27 52 L 27 44 Z M 34 44 C 31.25 44 29 46.25 29 49 L 29 75 C 29 77.75 31.25 80 34 80 L 75 80 C 77.75 80 80 77.75 80 75 L 80 49 C 80 46.25 77.75 44 75 44 Z M 19 46 L 25 46 L 25 50 L 19 50 Z M 34 46 L 75 46 C 76.671875 46 78 47.328125 78 49 L 78 75 C 78 76.671875 76.671875 78 75 78 L 34 78 C 32.328125 78 31 76.671875 31 75 L 31 49 C 31 47.328125 32.328125 46 34 46 Z M 44 52 C 40.699219 52 38 54.699219 38 58 C 38 60.019531 39.074219 61.726562 40.617188 62.816406 C 37.910156 64.101562 36 66.8125 36 70 L 38 70 C 38 66.671875 40.671875 64 44 64 C 47.328125 64 50 66.671875 50 70 L 52 70 C 52 66.8125 50.089844 64.101562 47.382812 62.816406 C 48.925781 61.726562 50 60.019531 50 58 L 50 57 L 49.796875 57 C 49.300781 54.1875 46.949219 52 44 52 Z M 54 53 L 54 55 L 73 55 L 73 53 Z M 44 54 C 46.222656 54 48 55.777344 48 58 C 48 60.222656 46.222656 62 44 62 C 41.777344 62 40 60.222656 40 58 C 40 55.777344 41.777344 54 44 54 Z M 17 56 L 17 64 L 27 64 L 27 56 Z M 19 58 L 25 58 L 25 62 L 19 62 Z M 54 58 L 54 60 L 71 60 L 71 58 Z M 54 63 L 54 65 L 73 65 L 73 63 Z M 35 73 C 34.449219 73 34 73.449219 34 74 C 34 74.550781 34.449219 75 35 75 C 35.550781 75 36 74.550781 36 74 C 36 73.449219 35.550781 73 35 73 Z M 39 73 C 38.449219 73 38 73.449219 38 74 C 38 74.550781 38.449219 75 39 75 C 39.550781 75 40 74.550781 40 74 C 40 73.449219 39.550781 73 39 73 Z M 43 73 C 42.449219 73 42 73.449219 42 74 C 42 74.550781 42.449219 75 43 75 C 43.550781 75 44 74.550781 44 74 C 44 73.449219 43.550781 73 43 73 Z M 47 73 C 46.449219 73 46 73.449219 46 74 C 46 74.550781 46.449219 75 47 75 C 47.550781 75 48 74.550781 48 74 C 48 73.449219 47.550781 73 47 73 Z M 51 73 C 50.449219 73 50 73.449219 50 74 C 50 74.550781 50.449219 75 51 75 C 51.550781 75 52 74.550781 52 74 C 52 73.449219 51.550781 73 51 73 Z M 55 73 C 54.449219 73 54 73.449219 54 74 C 54 74.550781 54.449219 75 55 75 C 55.550781 75 56 74.550781 56 74 C 56 73.449219 55.550781 73 55 73 Z M 59 73 C 58.449219 73 58 73.449219 58 74 C 58 74.550781 58.449219 75 59 75 C 59.550781 75 60 74.550781 60 74 C 60 73.449219 59.550781 73 59 73 Z M 63 73 C 62.449219 73 62 73.449219 62 74 C 62 74.550781 62.449219 75 63 75 C 63.550781 75 64 74.550781 64 74 C 64 73.449219 63.550781 73 63 73 Z M 67 73 C 66.449219 73 66 73.449219 66 74 C 66 74.550781 66.449219 75 67 75 C 67.550781 75 68 74.550781 68 74 C 68 73.449219 67.550781 73 67 73 Z M 67 73 "/>
</g>
</svg>
