<?xml version="1.0" encoding="UTF-8"?>
<svg xmlns="http://www.w3.org/2000/svg" xmlns:xlink="http://www.w3.org/1999/xlink" width="50pt" height="50pt" viewBox="0 0 50 50" version="1.1">
<g id="surface6194358">
<path style=" stroke:none;fill-rule:nonzero;fill:rgb(90.196079%,49.411765%,13.333334%);fill-opacity:1;" d="M 16 0 C 7.160156 0 0 7.160156 0 16 C 0 24.839844 7.160156 32 16 32 C 16.734375 32 17.449219 31.957031 18.160156 31.859375 C 18.066406 32.5625 18 33.273438 18 34 C 18 42.824219 25.175781 50 34 50 C 42.824219 50 50 42.824219 50 34 C 50 25.175781 42.824219 18 34 18 C 33.273438 18 32.5625 18.066406 31.859375 18.160156 C 31.957031 17.449219 32 16.734375 32 16 C 32 7.160156 24.839844 0 16 0 Z M 39.292969 0.292969 L 33.585938 6 L 39.292969 11.707031 L 40.707031 10.292969 L 37.414062 7 L 42 7 C 44.753906 7 47 9.246094 47 12 L 47 18 L 49 18 L 49 12 C 49 8.15625 45.84375 5 42 5 L 37.414062 5 L 40.707031 1.707031 Z M 16 2 C 23.761719 2 30 8.238281 30 16 C 30 16.933594 29.933594 17.773438 29.761719 18.589844 C 24.34375 20.078125 20.078125 24.34375 18.585938 29.761719 C 17.773438 29.933594 16.933594 30 16 30 C 8.238281 30 2 23.761719 2 16 C 2 8.238281 8.238281 2 16 2 Z M 15.984375 3.988281 C 15.433594 3.996094 14.992188 4.449219 15 5 L 15 6.761719 C 14.601562 6.835938 14.199219 6.964844 13.800781 7.097656 C 13.199219 7.398438 12.699219 7.699219 12.300781 8.097656 C 11.902344 8.597656 11.5 9 11.300781 9.597656 C 11 10.097656 10.902344 10.699219 10.902344 11.398438 C 10.902344 12.101562 11 12.597656 11.199219 13.097656 C 11.300781 13.597656 11.601562 14 12 14.300781 C 12.398438 14.601562 12.800781 14.898438 13.402344 15.097656 C 13.808594 15.261719 14.375 15.429688 15 15.589844 L 15 21.492188 C 14.292969 21.292969 13.707031 21.007812 13.199219 20.5 C 12.699219 20 12.300781 19.199219 12.402344 18.097656 L 10.5 18.097656 C 10.601562 19.699219 11.101562 20.902344 12 21.800781 C 12.707031 22.59375 13.738281 23.132812 15 23.320312 L 15 25 C 14.996094 25.359375 15.183594 25.695312 15.496094 25.878906 C 15.808594 26.058594 16.191406 26.058594 16.503906 25.878906 C 16.816406 25.695312 17.003906 25.359375 17 25 L 17 23.378906 C 17.652344 23.335938 18.179688 23.171875 18.699219 23 C 19.300781 22.699219 19.800781 22.398438 20.199219 22 C 20.597656 21.601562 21 21.101562 21.199219 20.5 C 21.5 20 21.597656 19.300781 21.597656 18.597656 C 21.597656 17.898438 21.5 17.300781 21.199219 16.800781 C 21 16.300781 20.699219 15.898438 20.300781 15.597656 C 19.902344 15.199219 19.5 15 19.097656 14.800781 C 18.699219 14.601562 18.398438 14.5 18.097656 14.398438 L 17 14.058594 L 17 8.554688 C 18.273438 8.886719 19.015625 9.675781 19.300781 11.097656 L 21.199219 11.097656 C 20.898438 9.800781 20.398438 8.699219 19.699219 8 C 19.039062 7.339844 18.109375 6.871094 17 6.734375 L 17 5 C 17.003906 4.730469 16.898438 4.46875 16.707031 4.277344 C 16.515625 4.085938 16.253906 3.980469 15.984375 3.984375 Z M 15 8.632812 L 15 13.640625 C 14.792969 13.550781 14.582031 13.460938 14.402344 13.402344 C 14.101562 13.199219 13.800781 13.101562 13.601562 12.902344 C 13.398438 12.699219 13.199219 12.5 13.101562 12.199219 C 13 11.898438 12.902344 11.597656 12.902344 11.199219 C 12.902344 10.398438 13.101562 9.699219 13.601562 9.300781 C 13.992188 8.910156 14.507812 8.703125 15 8.632812 Z M 17 16.207031 C 17.261719 16.308594 17.511719 16.425781 17.800781 16.5 C 18.101562 16.601562 18.398438 16.800781 18.699219 17 C 19 17.199219 19.199219 17.398438 19.300781 17.699219 C 19.402344 18 19.5 18.402344 19.5 18.800781 C 19.5 19.199219 19.402344 19.699219 19.300781 20 C 19.199219 20.398438 19 20.699219 18.699219 20.898438 C 18.5 21.101562 18.101562 21.300781 17.800781 21.398438 C 17.582031 21.472656 17.285156 21.542969 17 21.617188 Z M 34 20 C 41.742188 20 48 26.257812 48 34 C 48 41.742188 41.742188 48 34 48 C 26.257812 48 20 41.742188 20 34 C 20 26.257812 26.257812 20 34 20 Z M 39.980469 24.988281 C 39.652344 24.996094 39.347656 25.167969 39.167969 25.445312 L 34 33.195312 L 28.832031 25.445312 C 28.648438 25.160156 28.328125 24.988281 27.988281 24.988281 C 27.617188 24.988281 27.277344 25.195312 27.105469 25.523438 C 26.933594 25.851562 26.957031 26.25 27.167969 26.554688 L 32.132812 34 L 31 34 C 30.640625 33.996094 30.304688 34.183594 30.121094 34.496094 C 29.941406 34.808594 29.941406 35.191406 30.121094 35.503906 C 30.304688 35.816406 30.640625 36.003906 31 36 L 33 36 L 33 38 L 31 38 C 30.640625 37.996094 30.304688 38.183594 30.121094 38.496094 C 29.941406 38.808594 29.941406 39.191406 30.121094 39.503906 C 30.304688 39.816406 30.640625 40.003906 31 40 L 33 40 L 33 42 C 32.996094 42.359375 33.183594 42.695312 33.496094 42.878906 C 33.808594 43.058594 34.191406 43.058594 34.503906 42.878906 C 34.816406 42.695312 35.003906 42.359375 35 42 L 35 40 L 37 40 C 37.359375 40.003906 37.695312 39.816406 37.878906 39.503906 C 38.058594 39.191406 38.058594 38.808594 37.878906 38.496094 C 37.695312 38.183594 37.359375 37.996094 37 38 L 35 38 L 35 36 L 37 36 C 37.359375 36.003906 37.695312 35.816406 37.878906 35.503906 C 38.058594 35.191406 38.058594 34.808594 37.878906 34.496094 C 37.695312 34.183594 37.359375 33.996094 37 34 L 35.871094 34 L 40.832031 26.554688 C 41.046875 26.246094 41.066406 25.839844 40.886719 25.507812 C 40.710938 25.179688 40.359375 24.976562 39.980469 24.984375 Z M 1 32 L 1 38 C 1 41.84375 4.15625 45 8 45 L 11.585938 45 L 8.292969 48.292969 L 9.707031 49.707031 L 15.414062 44 L 9.707031 38.292969 L 8.292969 39.707031 L 11.585938 43 L 8 43 C 5.246094 43 3 40.753906 3 38 L 3 32 Z M 1 32 "/>
</g>
</svg>
