<?xml version="1.0" encoding="UTF-8"?>
<svg xmlns="http://www.w3.org/2000/svg" xmlns:xlink="http://www.w3.org/1999/xlink" width="64pt" height="64pt" viewBox="0 0 64 64" version="1.1">
<g id="surface6193235">
<path style=" stroke:none;fill-rule:nonzero;fill:rgb(60.784316%,34.901962%,71.372551%);fill-opacity:1;" d="M 22 0 C 9.871094 0 0 9.871094 0 22 C 0 33.480469 8.851562 42.941406 20.089844 43.910156 C 21.058594 55.148438 30.519531 64 42 64 C 54.128906 64 64 54.128906 64 42 C 64 30.519531 55.148438 21.058594 43.910156 20.089844 C 42.941406 8.851562 33.480469 0 22 0 Z M 22 2 C 32.351562 2 40.890625 9.898438 41.902344 20 C 40.878906 20 39.878906 20.082031 38.902344 20.21875 C 38.589844 17.0625 37.390625 14.089844 35.410156 11.550781 C 35.070312 11.109375 34.441406 11.027344 34 11.371094 C 33.570312 11.710938 33.488281 12.339844 33.828125 12.78125 C 35.609375 15.058594 36.667969 17.738281 36.929688 20.589844 C 32.039062 21.746094 27.78125 24.546875 24.757812 28.367188 C 24.574219 28.148438 24.308594 28 24 28 L 21 28 C 19.699219 28 18.597656 27.160156 18.183594 26 L 21 26 C 21.554688 26 22 25.554688 22 25 C 22 24.445312 21.554688 24 21 24 L 18 24 L 18 22 L 22 22 C 22.554688 22 23 21.554688 23 21 C 23 20.445312 22.554688 20 22 20 L 18 20 L 18 19 C 18 17.347656 19.347656 16 21 16 L 24 16 C 24.554688 16 25 15.554688 25 15 C 25 14.445312 24.554688 14 24 14 L 21 14 C 18.242188 14 16 16.242188 16 19 L 16 20 L 15 20 C 14.445312 20 14 20.445312 14 21 C 14 21.554688 14.445312 22 15 22 L 16 22 L 16 24 L 14 24 C 13.445312 24 13 24.445312 13 25 C 13 25.554688 13.445312 26 14 26 L 16.101562 26 C 16.566406 28.277344 18.585938 30 21 30 L 23.570312 30 C 22.203125 32.09375 21.183594 34.425781 20.59375 36.929688 C 12.980469 36.21875 7 29.789062 7 22 C 7 13.730469 13.730469 7 22 7 C 23.320312 7 24.621094 7.167969 25.878906 7.507812 C 26.410156 7.648438 26.960938 7.332031 27.097656 6.800781 C 27.238281 6.261719 26.929688 5.71875 26.390625 5.570312 C 24.96875 5.191406 23.488281 5 22 5 C 12.628906 5 5 12.628906 5 22 C 5 30.769531 11.679688 38.011719 20.21875 38.902344 C 20.082031 39.878906 20 40.878906 20 41.902344 C 9.898438 40.890625 2 32.351562 2 22 C 2 10.96875 10.96875 2 22 2 Z M 29.726562 6.9375 C 29.339844 6.898438 28.949219 7.09375 28.75 7.453125 C 28.488281 7.941406 28.667969 8.550781 29.152344 8.8125 C 29.863281 9.199219 30.546875 9.644531 31.1875 10.140625 C 31.367188 10.28125 31.582031 10.347656 31.796875 10.347656 C 32.097656 10.347656 32.390625 10.21875 32.589844 9.960938 C 32.925781 9.527344 32.847656 8.898438 32.410156 8.5625 C 31.683594 8 30.910156 7.492188 30.109375 7.054688 C 29.984375 6.988281 29.855469 6.949219 29.726562 6.9375 Z M 42 22 C 42.679688 22 43.339844 22.03125 44 22.097656 C 54.101562 23.109375 62 31.648438 62 42 C 62 53.03125 53.03125 62 42 62 C 31.648438 62 23.109375 54.101562 22.097656 44 C 22.03125 43.339844 22 42.679688 22 42 C 22 40.980469 22.082031 39.96875 22.230469 38.988281 C 22.332031 38.308594 22.472656 37.640625 22.628906 36.980469 C 24.449219 29.980469 29.980469 24.449219 36.980469 22.628906 C 37.640625 22.472656 38.308594 22.332031 38.988281 22.230469 C 39.96875 22.082031 40.980469 22 42 22 Z M 42 25 C 32.625 25 25 32.625 25 42 C 25 49.886719 30.347656 56.683594 38.003906 58.527344 C 38.082031 58.546875 38.160156 58.554688 38.238281 58.554688 C 38.6875 58.554688 39.097656 58.246094 39.210938 57.785156 C 39.339844 57.25 39.007812 56.710938 38.472656 56.582031 C 31.71875 54.953125 27 48.960938 27 42 C 27 33.730469 33.730469 27 42 27 C 48.851562 27 54.824219 31.628906 56.527344 38.253906 C 56.667969 38.789062 57.21875 39.109375 57.746094 38.972656 C 58.28125 38.835938 58.605469 38.289062 58.46875 37.753906 C 56.535156 30.246094 49.765625 25 42 25 Z M 42 32 C 41.445312 32 41 32.445312 41 33 L 41 34 C 39.347656 34 38 35.347656 38 37 L 38 40 C 38 41.652344 39.347656 43 41 43 L 43 43 C 43.550781 43 44 43.449219 44 44 L 44 47 C 44 47.550781 43.550781 48 43 48 L 41 48 C 40.449219 48 40 47.550781 40 47 C 40 46.445312 39.554688 46 39 46 C 38.445312 46 38 46.445312 38 47 C 38 48.652344 39.347656 50 41 50 L 41 51 C 41 51.554688 41.445312 52 42 52 C 42.554688 52 43 51.554688 43 51 L 43 50 C 44.652344 50 46 48.652344 46 47 L 46 44 C 46 42.347656 44.652344 41 43 41 L 41 41 C 40.449219 41 40 40.550781 40 40 L 40 37 C 40 36.449219 40.449219 36 41 36 L 43 36 C 43.550781 36 44 36.449219 44 37 C 44 37.554688 44.445312 38 45 38 C 45.554688 38 46 37.554688 46 37 C 46 35.347656 44.652344 34 43 34 L 43 33 C 43 32.445312 42.554688 32 42 32 Z M 56 43 C 55.445312 43 55 43.445312 55 44 C 55 44.554688 55.445312 45 56 45 L 58 45 C 58.554688 45 59 44.554688 59 44 C 59 43.445312 58.554688 43 58 43 Z M 55.046875 47.6875 C 54.660156 47.6875 54.285156 47.917969 54.125 48.296875 C 53.90625 48.808594 54.144531 49.394531 54.65625 49.609375 L 56.496094 50.390625 C 56.621094 50.445312 56.753906 50.46875 56.886719 50.46875 C 57.277344 50.46875 57.644531 50.242188 57.808594 49.859375 C 58.023438 49.351562 57.785156 48.765625 57.277344 48.550781 L 55.4375 47.769531 C 55.308594 47.714844 55.179688 47.691406 55.046875 47.6875 Z M 52.484375 51.484375 C 52.230469 51.484375 51.972656 51.582031 51.777344 51.777344 C 51.386719 52.167969 51.386719 52.800781 51.777344 53.191406 L 53.191406 54.605469 C 53.386719 54.800781 53.640625 54.898438 53.898438 54.898438 C 54.15625 54.898438 54.410156 54.800781 54.605469 54.605469 C 54.996094 54.214844 54.996094 53.582031 54.605469 53.191406 L 53.191406 51.777344 C 52.996094 51.582031 52.738281 51.484375 52.484375 51.484375 Z M 48.511719 54.125 C 48.378906 54.121094 48.25 54.148438 48.121094 54.199219 C 47.609375 54.40625 47.363281 54.988281 47.566406 55.5 L 48.316406 57.355469 C 48.472656 57.742188 48.847656 57.980469 49.246094 57.980469 C 49.371094 57.980469 49.496094 57.957031 49.617188 57.90625 C 50.128906 57.699219 50.378906 57.117188 50.171875 56.605469 L 49.421875 54.75 C 49.265625 54.367188 48.898438 54.132812 48.511719 54.125 Z M 44 55 C 43.445312 55 43 55.445312 43 56 L 43 58 C 43 58.554688 43.445312 59 44 59 C 44.554688 59 45 58.554688 45 58 L 45 56 C 45 55.445312 44.554688 55 44 55 Z M 44 55 "/>
</g>
</svg>
