<?xml version="1.0" encoding="UTF-8"?>
<svg xmlns="http://www.w3.org/2000/svg" xmlns:xlink="http://www.w3.org/1999/xlink" width="100pt" height="100pt" viewBox="0 0 100 100" version="1.1">
<g id="surface6314747">
<path style=" stroke:none;fill-rule:nonzero;fill:rgb(18.039216%,80.000001%,44.313726%);fill-opacity:1;" d="M 29.988281 10.953125 C 25.542969 10.953125 21.960938 15.679688 21.960938 19.589844 L 21.90625 61.984375 L 12.988281 61.960938 L 12.984375 61.960938 C 12.441406 61.960938 12 62.394531 11.984375 62.9375 C 11.984375 63.105469 11.980469 83.648438 12.027344 84.109375 C 12.5625 89.613281 17.96875 91.003906 21.417969 91.003906 C 21.773438 91.003906 22.109375 90.988281 22.417969 90.960938 L 80.699219 90.957031 C 84.558594 91.328125 86.683594 84.84375 86.914062 84.105469 C 86.945312 84.007812 86.960938 83.910156 86.960938 83.804688 L 86.960938 20.902344 L 90.105469 20.898438 C 90.644531 20.898438 91.085938 20.464844 91.101562 19.925781 C 91.171875 17.410156 90.414062 15.359375 88.84375 13.824219 C 85.667969 10.71875 80.332031 10.953125 80.152344 10.960938 Z M 29.988281 12.953125 L 80.203125 12.960938 C 80.246094 12.957031 84.90625 12.765625 87.449219 15.257812 C 88.402344 16.191406 88.945312 17.414062 89.074219 18.898438 L 51.957031 18.960938 C 51.40625 18.960938 50.960938 19.410156 50.960938 19.960938 C 50.960938 20.515625 51.410156 20.960938 51.960938 20.960938 L 84.960938 20.90625 L 84.960938 83.648438 C 84.335938 85.542969 82.609375 89.15625 80.789062 88.960938 L 22.332031 88.964844 C 22.015625 88.996094 14.566406 89.5625 14.019531 83.949219 C 13.992188 83.257812 13.984375 68.015625 13.984375 63.960938 L 21.902344 63.984375 L 21.878906 82.984375 C 21.878906 83.058594 21.886719 83.125 21.898438 83.195312 C 21.90625 83.210938 22.210938 84.792969 21.25 85.40625 C 20.785156 85.703125 20.648438 86.320312 20.945312 86.785156 C 21.136719 87.085938 21.460938 87.25 21.789062 87.25 C 21.972656 87.25 22.160156 87.199219 22.328125 87.089844 C 23.972656 86.039062 24.085938 84.011719 23.882812 82.890625 L 23.90625 63.257812 C 23.929688 63.171875 23.960938 63.085938 23.960938 62.992188 C 23.960938 62.894531 23.929688 62.808594 23.90625 62.71875 L 23.960938 19.59375 C 23.960938 16.605469 26.742188 12.953125 29.988281 12.953125 Z M 41.960938 18.960938 C 41.410156 18.960938 40.960938 19.410156 40.960938 19.960938 C 40.960938 20.511719 41.410156 20.960938 41.960938 20.960938 L 46.960938 20.960938 C 47.511719 20.960938 47.960938 20.511719 47.960938 19.960938 C 47.960938 19.410156 47.511719 18.960938 46.960938 18.960938 Z M 28.460938 27.960938 C 28.183594 27.960938 27.960938 28.183594 27.960938 28.460938 C 27.960938 28.738281 28.183594 28.960938 28.460938 28.960938 L 51.460938 28.960938 C 51.738281 28.960938 51.960938 28.738281 51.960938 28.460938 C 51.960938 28.183594 51.738281 27.960938 51.460938 27.960938 Z M 54.460938 27.960938 C 54.183594 27.960938 53.960938 28.183594 53.960938 28.460938 C 53.960938 28.738281 54.183594 28.960938 54.460938 28.960938 L 68.460938 28.960938 C 68.738281 28.960938 68.960938 28.738281 68.960938 28.460938 C 68.960938 28.183594 68.738281 27.960938 68.460938 27.960938 Z M 71.460938 27.960938 C 71.183594 27.960938 70.960938 28.183594 70.960938 28.460938 C 70.960938 28.738281 71.183594 28.960938 71.460938 28.960938 L 82.460938 28.960938 C 82.738281 28.960938 82.960938 28.738281 82.960938 28.460938 C 82.960938 28.183594 82.738281 27.960938 82.460938 27.960938 Z M 28.460938 33.960938 C 28.183594 33.960938 27.960938 34.183594 27.960938 34.460938 C 27.960938 34.738281 28.183594 34.960938 28.460938 34.960938 L 46.460938 34.960938 C 46.738281 34.960938 46.960938 34.738281 46.960938 34.460938 C 46.960938 34.183594 46.738281 33.960938 46.460938 33.960938 Z M 49.460938 33.960938 C 49.183594 33.960938 48.960938 34.183594 48.960938 34.460938 C 48.960938 34.738281 49.183594 34.960938 49.460938 34.960938 L 82.460938 34.960938 C 82.738281 34.960938 82.960938 34.738281 82.960938 34.460938 C 82.960938 34.183594 82.738281 33.960938 82.460938 33.960938 Z M 28.460938 41.960938 C 28.183594 41.960938 27.960938 42.183594 27.960938 42.460938 L 27.960938 58.460938 C 27.960938 58.738281 28.183594 58.960938 28.460938 58.960938 L 45.460938 58.960938 C 45.738281 58.960938 45.960938 58.738281 45.960938 58.460938 L 45.960938 45.460938 C 45.960938 45.183594 45.738281 44.960938 45.460938 44.960938 C 45.183594 44.960938 44.960938 45.183594 44.960938 45.460938 L 44.960938 57.960938 L 28.960938 57.960938 L 28.960938 42.960938 L 42.460938 42.960938 C 42.738281 42.960938 42.960938 42.738281 42.960938 42.460938 C 42.960938 42.183594 42.738281 41.960938 42.460938 41.960938 Z M 51.460938 43.960938 C 51.183594 43.960938 50.960938 44.183594 50.960938 44.460938 C 50.960938 44.738281 51.183594 44.960938 51.460938 44.960938 L 82.460938 44.960938 C 82.738281 44.960938 82.960938 44.738281 82.960938 44.460938 C 82.960938 44.183594 82.738281 43.960938 82.460938 43.960938 Z M 51.460938 50.960938 C 51.183594 50.960938 50.960938 51.183594 50.960938 51.460938 C 50.960938 51.738281 51.183594 51.960938 51.460938 51.960938 L 82.460938 51.960938 C 82.738281 51.960938 82.960938 51.738281 82.960938 51.460938 C 82.960938 51.183594 82.738281 50.960938 82.460938 50.960938 Z M 51.460938 57.960938 C 51.183594 57.960938 50.960938 58.183594 50.960938 58.460938 C 50.960938 58.738281 51.183594 58.960938 51.460938 58.960938 L 82.460938 58.960938 C 82.738281 58.960938 82.960938 58.738281 82.960938 58.460938 C 82.960938 58.183594 82.738281 57.960938 82.460938 57.960938 Z M 28.460938 65.960938 C 28.183594 65.960938 27.960938 66.183594 27.960938 66.460938 C 27.960938 66.738281 28.183594 66.960938 28.460938 66.960938 L 59.460938 66.960938 C 59.738281 66.960938 59.960938 66.738281 59.960938 66.460938 C 59.960938 66.183594 59.738281 65.960938 59.460938 65.960938 Z M 64.460938 65.960938 C 64.183594 65.960938 63.960938 66.183594 63.960938 66.460938 L 63.960938 80.460938 C 63.960938 80.738281 64.183594 80.960938 64.460938 80.960938 C 64.738281 80.960938 64.960938 80.738281 64.960938 80.460938 L 64.960938 66.960938 L 80.960938 66.960938 L 80.960938 81.960938 L 68.460938 81.960938 C 68.183594 81.960938 67.960938 82.183594 67.960938 82.460938 C 67.960938 82.738281 68.183594 82.960938 68.460938 82.960938 L 81.460938 82.960938 C 81.738281 82.960938 81.960938 82.738281 81.960938 82.460938 L 81.960938 66.460938 C 81.960938 66.183594 81.738281 65.960938 81.460938 65.960938 Z M 28.460938 72.960938 C 28.183594 72.960938 27.960938 73.183594 27.960938 73.460938 C 27.960938 73.738281 28.183594 73.960938 28.460938 73.960938 L 59.460938 73.960938 C 59.738281 73.960938 59.960938 73.738281 59.960938 73.460938 C 59.960938 73.183594 59.738281 72.960938 59.460938 72.960938 Z M 28.460938 79.960938 C 28.183594 79.960938 27.960938 80.183594 27.960938 80.460938 C 27.960938 80.738281 28.183594 80.960938 28.460938 80.960938 L 59.460938 80.960938 C 59.738281 80.960938 59.960938 80.738281 59.960938 80.460938 C 59.960938 80.183594 59.738281 79.960938 59.460938 79.960938 Z M 28.460938 79.960938 "/>
</g>
</svg>
